<?xml version="1.0" standalone="no"?>
<!DOCTYPE svg PUBLIC "-//W3C//DTD SVG 20010904//EN"
 "http://www.w3.org/TR/2001/REC-SVG-20010904/DTD/svg10.dtd">
<svg version="1.0" xmlns="http://www.w3.org/2000/svg"
 width="300.000000pt" height="143.000000pt" viewBox="0 0 300.000000 143.000000"
 preserveAspectRatio="xMidYMid meet">
<metadata>
Created by potrace 1.10, written by Peter Selinger 2001-2011
</metadata>
<g transform="translate(0.000000,143.000000) scale(0.100000,-0.100000)"
fill="#ffffff" stroke="none">
<path d="M1350 1294 c-130 -12 -369 -48 -470 -70 -187 -41 -459 -141 -445
-164 3 -5 0 -12 -6 -16 -8 -4 -9 -3 -5 4 15 24 -13 10 -76 -37 -64 -49 -129
-131 -150 -192 -6 -17 -8 -65 -6 -108 4 -69 10 -89 59 -187 44 -90 66 -122
129 -184 129 -129 261 -181 460 -181 219 0 354 38 785 221 315 134 425 164
511 141 55 -15 89 -43 131 -109 26 -40 46 -59 79 -74 43 -18 47 -19 102 -3
132 38 258 182 307 349 25 85 18 204 -17 278 -31 67 -103 147 -162 181 -92 54
-235 95 -451 129 -105 16 -188 21 -430 23 -165 1 -320 1 -345 -1z m310 -14
c47 -1 98 2 113 5 19 4 26 2 22 -5 -4 -6 27 -10 92 -11 54 -1 107 -3 118 -4
11 -1 46 -5 78 -8 32 -4 66 -11 77 -17 10 -5 38 -10 63 -10 24 0 47 -3 51 -7
3 -4 14 -8 24 -9 45 -5 143 -34 195 -58 32 -14 61 -26 65 -26 11 0 92 -70 92
-79 0 -4 -66 -6 -147 -4 -97 3 -156 0 -175 -8 -20 -8 -32 -8 -41 -1 -8 7 -64
10 -147 9 l-134 -2 -21 -30 c-11 -17 -28 -66 -39 -110 -18 -81 -51 -213 -61
-250 -3 -11 -8 -32 -10 -48 -2 -15 -7 -32 -10 -37 -10 -16 -25 -1 -25 24 0 12
-5 27 -10 32 -6 6 -11 27 -12 47 -1 20 -4 37 -8 37 -3 0 -11 19 -17 42 -13 47
-15 43 116 188 48 53 57 75 40 96 -9 11 -27 14 -68 11 -59 -5 -64 -8 -153
-117 l-37 -45 8 35 c4 19 8 37 8 40 0 3 3 15 7 28 6 16 2 29 -10 43 -23 26
-104 27 -126 2 -19 -22 -39 -92 -72 -254 -47 -229 -22 -181 40 78 l38 161 58
4 c45 2 57 0 53 -10 -5 -13 -45 -172 -45 -178 0 -2 6 -4 13 -4 8 0 47 42 88
94 l74 94 60 4 c33 2 62 3 64 2 1 -2 -40 -52 -93 -112 -53 -61 -96 -116 -96
-123 0 -8 7 -34 15 -59 44 -134 55 -171 55 -180 0 -6 -27 -10 -59 -10 -48 0
-61 3 -64 18 -59 224 -71 232 -107 82 l-23 -100 -56 0 c-40 0 -52 -3 -41 -10
21 -14 82 -12 101 3 9 7 25 41 34 75 10 35 22 61 27 60 11 -4 38 -73 38 -97 0
-33 32 -51 91 -51 32 0 61 4 64 10 9 15 42 12 49 -5 5 -13 -10 -20 -36 -16 -5
0 -8 -3 -8 -8 0 -5 -8 -11 -17 -14 -66 -22 -201 -78 -328 -138 -56 -26 -265
-100 -265 -94 0 3 -10 -1 -22 -8 -13 -8 -50 -20 -83 -27 -33 -6 -70 -17 -81
-22 -25 -12 -294 -15 -339 -5 -16 4 -43 10 -59 13 -56 10 -182 84 -242 142
-56 53 -112 122 -100 122 3 0 -10 26 -29 58 -19 31 -35 64 -35 73 0 8 -5 20
-10 25 -6 6 -12 29 -14 51 -1 22 -6 45 -11 53 -5 8 -4 11 3 6 7 -4 7 3 -1 24
-10 25 -8 34 11 59 12 17 22 35 22 41 0 14 150 163 157 157 7 -7 -18 -127 -28
-133 -5 -3 -9 -15 -9 -27 0 -12 -14 -78 -31 -147 -17 -69 -32 -132 -34 -140
-7 -34 20 -51 76 -48 47 3 55 6 71 35 10 17 22 51 26 75 l8 43 57 1 c66 2 113
19 128 46 10 19 10 19 -17 1 -18 -11 -55 -19 -108 -23 l-80 -5 -9 -40 c-5 -22
-13 -57 -18 -77 l-10 -38 -55 0 c-54 0 -54 0 -48 28 4 15 30 121 59 237 l53
210 126 3 c77 2 134 -2 147 -8 33 -18 40 -54 25 -128 -7 -37 -12 -71 -10 -77
3 -6 -16 -48 -41 -95 -25 -46 -45 -86 -45 -89 0 -3 -9 -17 -20 -31 -11 -14
-20 -27 -20 -30 0 -3 55 -4 123 -2 115 3 123 4 132 25 8 17 20 23 57 25 l48 3
24 -53 c47 -105 118 -148 244 -148 100 0 171 32 217 98 l30 44 3 189 4 189
-114 0 -113 0 3 -157 c3 -137 1 -159 -13 -170 -40 -28 -45 -9 -45 163 l0 164
-87 0 -88 0 -54 104 -55 103 -19 -36 c-10 -20 -34 -63 -52 -96 -18 -33 -47
-87 -65 -120 -31 -59 -58 -96 -48 -65 40 116 42 129 25 166 -25 51 -60 62
-189 58 -90 -3 -106 -1 -95 10 13 14 103 56 119 56 5 0 25 7 46 16 20 10 48
19 62 21 13 2 30 9 37 15 7 6 13 8 13 4 0 -3 16 0 35 8 19 8 35 13 35 11 0 -2
29 4 64 14 35 10 73 16 85 14 11 -1 21 1 21 5 0 4 10 9 23 9 33 2 120 12 137
16 8 2 26 7 40 10 38 9 135 16 242 18 64 1 95 5 91 12 -4 6 6 8 28 4 19 -4 72
-7 119 -7z m-735 -241 c-8 -12 17 -59 28 -52 6 3 7 1 3 -5 -4 -6 3 -29 14 -52
l20 -40 79 0 c45 0 81 4 83 10 2 6 3 -63 3 -152 0 -125 3 -162 13 -160 6 1 11
-4 10 -10 -2 -9 12 -14 39 -16 34 -3 44 1 53 19 12 22 15 284 3 317 -5 14 -3
15 8 5 16 -16 149 -18 149 -2 0 5 5 7 12 3 9 -6 9 -9 0 -12 -9 -3 -12 -47 -12
-160 0 -141 -2 -160 -21 -191 -27 -45 -55 -67 -108 -86 -84 -29 -184 -12 -242
42 -23 21 -57 84 -73 136 -4 14 -18 17 -79 17 -70 0 -74 -1 -86 -26 -6 -14 -9
-29 -7 -32 2 -4 -38 -7 -89 -7 -91 0 -93 1 -74 18 11 10 16 23 13 29 -4 6 -3
8 2 5 6 -3 25 21 43 54 18 32 36 57 41 54 5 -3 16 8 25 25 19 38 11 40 -9 3
-8 -16 -15 -22 -16 -15 0 7 12 34 26 60 70 123 115 214 110 219 -3 3 0 15 6
26 10 20 11 20 24 2 7 -10 11 -21 9 -26z m1360 -41 c-14 -71 -9 -67 -107 -70
l-91 -3 -13 -45 c-8 -25 -14 -46 -14 -48 0 -2 36 -2 81 0 76 3 80 2 74 -17 -3
-11 -8 -32 -11 -47 -6 -28 -7 -28 -85 -28 l-78 0 -11 -41 c-6 -22 -14 -47 -17
-55 -5 -13 7 -15 87 -12 l92 3 -6 -39 c-4 -22 -9 -43 -12 -48 -3 -4 -70 -8
-150 -8 -136 0 -145 1 -140 18 6 17 116 455 116 459 0 1 64 4 143 6 78 1 143
4 145 5 2 1 1 -13 -3 -30z m373 -22 l-12 -46 -57 0 -56 0 -17 -67 c-9 -38 -25
-99 -36 -138 -10 -38 -24 -96 -31 -127 l-12 -58 -57 0 -56 0 47 188 c27 103
48 190 49 195 0 4 -25 7 -55 7 -30 0 -55 3 -55 6 0 4 5 24 12 45 l11 39 166 2
c91 2 167 2 169 2 1 -1 -3 -22 -10 -48z m64 -32 c5 -22 11 -49 12 -61 0 -13 3
-23 6 -23 3 0 4 -28 4 -62 -1 -35 -3 -63 -4 -63 -2 0 -4 -11 -5 -25 -6 -45
-23 -101 -37 -118 -8 -9 -20 -30 -28 -47 -21 -43 -132 -150 -172 -164 -18 -7
-42 -17 -53 -22 -24 -10 -85 -8 -85 3 0 5 -7 8 -15 8 -8 0 -32 24 -53 53 -22
28 -54 65 -71 80 -23 20 -30 34 -26 45 4 9 9 33 12 54 7 47 -17 61 -98 56 -59
-4 -59 -4 -59 24 0 15 3 29 8 29 4 1 35 3 70 5 70 3 82 11 101 72 13 39 13 43
-5 57 -11 8 -42 14 -72 15 -50 0 -53 2 -50 23 3 20 9 22 83 25 43 2 85 8 92
14 10 8 18 6 33 -7 12 -11 29 -16 45 -12 34 6 39 -9 21 -64 -7 -24 -19 -69
-26 -99 -7 -30 -16 -66 -21 -80 -4 -14 -11 -44 -14 -68 -9 -58 4 -72 70 -72
49 0 53 2 68 33 20 39 67 209 72 256 2 18 8 38 14 44 6 6 11 22 11 35 0 21 4
23 38 21 59 -4 78 7 91 52 14 48 27 42 43 -17z"/>
<path d="M502 878 c-6 -29 -14 -61 -18 -71 -6 -16 -1 -18 47 -15 48 3 55 6 68
32 7 15 16 46 18 67 l6 39 -55 0 -55 0 -11 -52z m92 -2 c-8 -40 -31 -66 -59
-66 -22 0 -22 2 -14 42 13 55 15 57 50 56 28 -1 30 -3 23 -32z"/>
<path d="M880 980 c-6 -11 -8 -20 -6 -20 3 0 10 9 16 20 6 11 8 20 6 20 -3 0
-10 -9 -16 -20z"/>
<path d="M836 900 c-15 -27 -25 -50 -22 -50 6 0 57 92 53 97 -2 2 -16 -19 -31
-47z"/>
<path d="M1006 825 c32 -60 70 -132 86 -158 15 -26 28 -49 28 -50 0 -6 -100 2
-110 8 -9 6 -9 2 -1 -14 10 -17 21 -21 64 -21 42 0 56 -5 74 -24 21 -22 79
-43 67 -25 -3 5 -13 9 -23 9 -24 0 -61 42 -61 70 0 25 -98 214 -130 252 -11
13 -27 32 -36 43 -8 11 11 -29 42 -90z"/>
<path d="M1043 873 c15 -2 39 -2 55 0 15 2 2 4 -28 4 -30 0 -43 -2 -27 -4z"/>
<path d="M1333 873 c15 -2 37 -2 50 0 12 2 0 4 -28 4 -27 0 -38 -2 -22 -4z"/>
<path d="M874 800 l-31 -59 63 1 63 1 -31 56 c-18 31 -32 57 -32 58 -1 1 -15
-25 -32 -57z m54 -7 l12 -28 -17 23 -17 24 -19 -24 c-18 -22 -13 -5 6 20 14
18 23 15 35 -15z m-18 -33 c0 -5 -2 -10 -4 -10 -3 0 -8 5 -11 10 -3 6 -1 10 4
10 6 0 11 -4 11 -10z"/>
<path d="M796 823 c-6 -14 -5 -15 5 -6 7 7 10 15 7 18 -3 3 -9 -2 -12 -12z"/>
<path d="M736 713 c-6 -14 -5 -15 5 -6 7 7 10 15 7 18 -3 3 -9 -2 -12 -12z"/>
<path d="M700 650 c-6 -11 -8 -20 -6 -20 3 0 10 9 16 20 6 11 8 20 6 20 -3 0
-10 -9 -16 -20z"/>
<path d="M815 659 c-11 -17 1 -21 15 -4 8 9 8 15 2 15 -6 0 -14 -5 -17 -11z"/>
<path d="M980 655 c7 -9 15 -13 17 -11 7 7 -7 26 -19 26 -6 0 -6 -6 2 -15z"/>
<path d="M1279 574 c-7 -9 -22 -20 -34 -24 -12 -6 -14 -9 -5 -9 18 -1 67 35
59 44 -3 3 -12 -2 -20 -11z"/>
<path d="M1393 561 c-6 -16 -30 -43 -53 -60 -24 -17 -38 -31 -32 -31 18 0 102
85 102 103 0 24 -4 21 -17 -12z"/>
<path d="M1055 522 c11 -13 29 -28 40 -34 21 -11 18 -8 -30 32 -29 24 -29 24
-10 2z"/>
<path d="M1153 463 c9 -2 25 -2 35 0 9 3 1 5 -18 5 -19 0 -27 -2 -17 -5z"/>
<path d="M1243 463 c9 -2 25 -2 35 0 9 3 1 5 -18 5 -19 0 -27 -2 -17 -5z"/>
</g>
</svg>
