<?xml version="1.0" standalone="no"?>
<!DOCTYPE svg PUBLIC "-//W3C//DTD SVG 20010904//EN"
 "http://www.w3.org/TR/2001/REC-SVG-20010904/DTD/svg10.dtd">
<svg version="1.0" xmlns="http://www.w3.org/2000/svg"
 width="300.000000pt" height="101.000000pt" viewBox="0 0 300.000000 101.000000"
 preserveAspectRatio="xMidYMid meet">
<metadata>
Created by potrace 1.10, written by Peter Selinger 2001-2011
</metadata>
<g transform="translate(0.000000,101.000000) scale(0.100000,-0.100000)"
fill="#ffffff" stroke="none">
<path d="M801 822 c-28 -49 -51 -92 -51 -95 0 -2 -30 -58 -66 -123 -64 -115
-134 -254 -134 -267 0 -4 47 -7 105 -7 l104 0 16 30 c15 29 18 30 84 30 l69 0
33 -72 c24 -51 44 -79 73 -100 139 -100 357 -60 417 77 13 31 19 81 24 220 3
99 8 187 11 196 4 14 -2 15 -48 7 -29 -6 -79 -7 -110 -4 l-58 6 0 -180 c0
-174 -1 -179 -22 -194 -31 -22 -54 -20 -79 5 -21 21 -21 27 -14 190 l7 169
-94 0 -93 0 -50 97 c-28 53 -55 98 -61 100 -6 2 -34 -36 -63 -85z m109 -40
l45 -87 88 -3 87 -3 0 -163 c0 -185 6 -202 70 -212 27 -4 42 -1 63 16 l27 21
0 170 0 169 81 0 80 0 -3 -189 -3 -189 -31 -39 c-73 -90 -213 -115 -327 -59
-63 30 -92 66 -122 149 l-18 47 -87 0 c-82 0 -87 -1 -98 -24 -10 -23 -17 -25
-96 -28 -48 -2 -85 0 -84 4 9 23 274 508 278 508 3 0 25 -40 50 -88z"/>
<path d="M832 798 c-31 -53 -196 -360 -205 -383 -17 -43 12 3 64 100 138 257
164 305 169 305 4 0 224 -399 238 -432 2 -5 -23 -8 -56 -8 -57 0 -60 1 -72 30
l-12 30 -98 0 -98 0 -12 -30 c-12 -28 -16 -30 -69 -32 l-56 -2 53 -3 c48 -4
55 -1 81 26 27 29 34 31 101 31 68 0 74 -2 101 -31 16 -17 29 -35 29 -40 0 -5
27 -9 59 -9 53 0 63 -3 89 -30 23 -22 40 -30 67 -30 46 0 92 23 101 52 8 25 7
318 -1 326 -3 3 -5 -65 -5 -151 0 -85 -3 -163 -6 -172 -8 -20 -56 -45 -88 -45
-35 0 -96 55 -96 88 0 29 -110 245 -144 282 -13 14 -40 55 -61 93 -20 37 -40
67 -45 67 -5 0 -17 -15 -28 -32z"/>
<path d="M1047 673 l62 -4 4 -112 3 -112 -1 115 0 115 -65 1 -65 0 62 -3z"/>
<path d="M1343 673 c15 -2 39 -2 55 0 15 2 2 4 -28 4 -30 0 -43 -2 -27 -4z"/>
<path d="M1432 515 c-2 -144 -4 -165 -24 -205 -32 -62 -105 -100 -195 -100
-96 0 -159 33 -204 105 -11 17 -19 25 -19 19 0 -28 49 -81 99 -107 45 -22 68
-27 125 -27 85 0 138 21 183 73 41 47 45 70 41 252 l-4 150 -2 -160z"/>
<path d="M822 585 l-32 -65 70 0 70 0 -33 65 c-17 36 -34 65 -37 65 -3 0 -20
-29 -38 -65z m52 -11 c10 -26 7 -34 -14 -34 -11 0 -20 4 -20 9 0 17 12 41 20
41 4 0 11 -7 14 -16z"/>
<path d="M316 838 c-13 -40 -26 -111 -23 -115 3 -2 11 22 19 54 l14 58 129 5
130 6 -133 2 c-99 1 -134 -1 -136 -10z"/>
<path d="M1621 813 c-81 -308 -128 -515 -116 -519 7 -3 37 -4 66 -2 49 3 54 5
56 28 3 25 3 25 -7 3 -8 -20 -17 -23 -63 -23 l-55 0 67 268 67 267 62 0 c34 0
62 3 62 8 0 4 -29 7 -65 7 l-64 0 -10 -37z"/>
<path d="M1824 741 c-90 -110 -122 -136 -110 -85 15 56 15 86 1 39 -19 -65
-19 -75 3 -75 10 0 55 47 107 110 l90 110 59 0 c68 0 75 16 -61 -141 -51 -59
-93 -111 -93 -117 0 -5 18 -68 40 -140 22 -71 40 -133 40 -137 0 -3 -29 -5
-64 -3 -35 1 -62 0 -59 -4 8 -13 133 -9 133 4 0 6 -18 72 -41 145 -34 114 -39
137 -27 151 7 9 55 66 105 125 51 59 93 112 93 117 0 6 -29 10 -64 10 l-64 0
-88 -109z"/>
<path d="M2096 834 c-3 -9 -6 -21 -5 -27 0 -7 4 -2 9 11 9 21 13 22 164 22
139 0 155 -2 159 -17 4 -14 5 -12 6 5 1 22 1 22 -163 22 -140 0 -165 -2 -170
-16z"/>
<path d="M2461 806 c-19 -75 -18 -76 48 -76 38 0 61 -4 64 -12 3 -8 6 -6 6 5
1 14 -8 17 -59 17 -66 0 -67 1 -49 63 l10 37 186 0 c156 0 184 -2 180 -14 -3
-8 -9 -30 -12 -50 l-7 -35 -66 -3 c-55 -2 -67 -6 -68 -21 -1 -11 0 -12 3 -3 3
11 23 16 71 18 l66 3 13 50 c7 28 13 53 13 58 0 4 -87 7 -194 7 l-194 0 -11
-44z"/>
<path d="M617 825 c41 -17 50 -50 36 -130 -16 -90 -47 -156 -90 -185 -31 -21
-50 -26 -125 -28 l-88 -4 -10 -39 c-5 -21 -15 -57 -21 -80 -6 -23 -8 -43 -6
-45 3 -3 13 30 24 73 l19 78 84 5 c134 9 169 38 210 169 28 89 27 145 -5 176
-13 14 -32 25 -42 25 -11 -1 -5 -6 14 -15z"/>
<path d="M1735 790 c-4 -17 -5 -34 -2 -36 3 -3 8 9 12 26 4 17 5 34 2 36 -3 3
-8 -9 -12 -26z"/>
<path d="M2406 775 c-6 -25 -8 -25 -106 -25 -99 0 -101 0 -110 -26 -6 -14 -10
-33 -9 -42 1 -9 6 0 11 21 l10 37 104 0 c103 0 104 0 110 25 4 14 4 28 1 31
-2 3 -7 -7 -11 -21z"/>
<path d="M2061 699 c-12 -50 -21 -93 -18 -95 2 -3 15 36 27 86 12 50 21 93 18
95 -2 2 -14 -37 -27 -86z"/>
<path d="M413 735 c-3 -9 -3 -19 1 -22 3 -4 6 1 6 10 0 18 42 23 88 11 25 -7
29 -40 11 -95 -17 -49 -23 -53 -87 -60 l-57 -6 51 -2 c60 -1 86 16 103 68 17
52 14 89 -8 101 -31 16 -101 13 -108 -5z"/>
<path d="M234 505 c-39 -154 -49 -208 -39 -211 7 -3 37 -3 66 -1 l54 3 -61 2
-62 2 50 196 c27 108 47 201 46 206 -2 5 -26 -84 -54 -197z"/>
<path d="M392 648 c-7 -28 -11 -53 -8 -55 2 -2 9 19 16 47 7 28 10 53 8 55 -3
3 -10 -18 -16 -47z"/>
<path d="M2551 649 c-7 -27 -11 -52 -9 -54 2 -3 10 18 17 46 7 27 11 52 9 54
-2 3 -10 -18 -17 -46z"/>
<path d="M2672 638 c-7 -28 -11 -53 -8 -55 2 -2 9 19 16 47 7 28 10 53 8 55
-3 3 -10 -18 -16 -47z"/>
<path d="M2171 643 c-1 -22 2 -23 84 -23 l85 0 -5 -27 c-4 -23 -4 -25 4 -8 20
42 15 45 -73 45 -72 0 -85 3 -89 18 -4 13 -5 11 -6 -5z"/>
<path d="M2002 458 c-18 -72 -31 -133 -29 -135 3 -2 19 55 37 127 18 72 31
133 28 135 -2 2 -18 -55 -36 -127z"/>
<path d="M2525 550 c-4 -17 -5 -34 -2 -36 3 -3 8 9 12 26 4 17 5 34 2 36 -3 3
-8 -9 -12 -26z"/>
<path d="M2646 539 c-8 -42 0 -50 9 -9 4 17 5 34 2 36 -2 3 -7 -10 -11 -27z"/>
<path d="M2320 547 c0 -15 -13 -17 -90 -17 -49 0 -90 -3 -90 -7 0 -5 41 -7 91
-5 68 3 92 7 96 18 3 8 3 18 -1 21 -3 4 -6 -1 -6 -10z"/>
<path d="M1666 504 c-4 -14 -5 -28 -3 -31 3 -2 7 8 11 22 11 45 32 28 51 -42
10 -37 20 -63 22 -58 1 6 -5 37 -15 70 -14 46 -23 61 -39 63 -15 2 -22 -4 -27
-24z"/>
<path d="M2127 475 c-4 -17 -9 -40 -13 -52 -6 -23 -5 -23 95 -23 l102 0 -5
-37 c-4 -30 -4 -33 3 -13 21 59 20 60 -88 60 l-99 0 9 36 c6 19 9 40 6 47 -2
6 -6 -2 -10 -18z"/>
<path d="M2506 469 c-8 -42 0 -50 9 -9 4 17 5 34 2 36 -2 3 -7 -10 -11 -27z"/>
<path d="M2612 397 l-24 -97 -55 0 -55 0 6 30 c14 70 15 92 1 45 -25 -85 -24
-86 48 -83 l62 3 23 85 c12 47 21 92 19 100 -1 8 -13 -30 -25 -83z"/>
<path d="M1642 408 c-7 -28 -11 -53 -8 -55 2 -2 9 19 16 47 7 28 10 53 8 55
-3 3 -10 -18 -16 -47z"/>
<path d="M1751 370 c0 -8 4 -24 9 -35 5 -13 9 -14 9 -5 0 8 -4 24 -9 35 -5 13
-9 14 -9 5z"/>
<path d="M2290 311 c0 -9 -40 -11 -164 -9 -90 2 -162 0 -159 -4 7 -13 321 -10
328 3 4 6 4 13 1 16 -3 4 -6 1 -6 -6z"/>
</g>
</svg>
